# xmcd
#
# Track frame offsets:
#	150
#	15843
#	25344
#	39751
#	48409
#	69412
#	80294
#	96134
#	108512
#	123834
#	137937
#	153978
#	166764
#	182347
#	196945
#	210871
#
# Disc length: 3187 seconds
#
# Revision: 1
# Processed by: cddbd v1.5.2PL0 Copyright (c) Steve Scherf et al.
# Submitted via: audiograbber 1.83.01
#
DISCID=b70c7110
DTITLE=Yvette Landry - Should Have Known
DYEAR=2010
DGENRE=Country
TTITLE0=Should Have Known
TTITLE1=120 Proof
TTITLE2=Better Days
TTITLE3=Blue Moon Girl
TTITLE4=Friday Night Special
TTITLE5=Jack
TTITLE6=Where Memories Are Gold
TTITLE7=One More Broken Heart
TTITLE8=Talk
TTITLE9=Down Home Blues
TTITLE10=Can't See Me Without You
TTITLE11=Growing Old
TTITLE12=Another Lesson Learned
TTITLE13=Dead And Gone
TTITLE14=Too Tired
TTITLE15=Fishing's Better Anyway
EXTD=
EXTT0=
EXTT1=
EXTT2=
EXTT3=
EXTT4=
EXTT5=
EXTT6=
EXTT7=
EXTT8=
EXTT9=
EXTT10=
EXTT11=
EXTT12=
EXTT13=
EXTT14=
EXTT15=
PLAYORDER=
